<?xml version="1.0" encoding="UTF-8"?>
<svg id="Layer_2" data-name="Layer 2" xmlns="http://www.w3.org/2000/svg" xmlns:xlink="http://www.w3.org/1999/xlink" viewBox="0 0 260.62 73.1">
  <defs>
    <style>
      .cls-1 {
        fill: url(#linear-gradient-2);
      }

      .cls-2 {
        fill: #5e4187;
      }

      .cls-3 {
        fill: url(#linear-gradient-5);
      }

      .cls-4 {
        fill: none;
      }

      .cls-5 {
        fill: url(#linear-gradient-3);
      }

      .cls-6 {
        fill: url(#linear-gradient);
      }

      .cls-7 {
        fill: url(#linear-gradient-4);
      }
    </style>
    <linearGradient id="linear-gradient" x1="226.16" y1="45.54" x2="260.62" y2="45.54" gradientUnits="userSpaceOnUse">
      <stop offset="0" stop-color="#1f254a"/>
      <stop offset=".19" stop-color="#322d5c"/>
      <stop offset=".49" stop-color="#4a3873"/>
      <stop offset=".77" stop-color="#583e82"/>
      <stop offset="1" stop-color="#5e4187"/>
    </linearGradient>
    <linearGradient id="linear-gradient-2" x1="191.57" y1="37.07" x2="207.15" y2="37.07" gradientUnits="userSpaceOnUse">
      <stop offset="0" stop-color="#1f254a"/>
      <stop offset=".28" stop-color="#342e5f"/>
      <stop offset=".74" stop-color="#523b7c"/>
      <stop offset="1" stop-color="#5e4187"/>
    </linearGradient>
    <linearGradient id="linear-gradient-3" x1="70" y1="37.48" x2="110.4" y2="37.48" gradientUnits="userSpaceOnUse">
      <stop offset="0" stop-color="#1f254a"/>
      <stop offset=".06" stop-color="#282953"/>
      <stop offset=".28" stop-color="#45366f"/>
      <stop offset=".46" stop-color="#573e80"/>
      <stop offset=".59" stop-color="#5e4187"/>
      <stop offset=".69" stop-color="#573e81"/>
      <stop offset=".83" stop-color="#463770"/>
      <stop offset=".99" stop-color="#292b54"/>
      <stop offset="1" stop-color="#272a52"/>
    </linearGradient>
    <linearGradient id="linear-gradient-4" x1="32.67" y1="55.82" x2="32.67" y2="0" gradientUnits="userSpaceOnUse">
      <stop offset="0" stop-color="#1f254a"/>
      <stop offset=".09" stop-color="#2d2b57"/>
      <stop offset=".26" stop-color="#42346c"/>
      <stop offset=".45" stop-color="#523b7b"/>
      <stop offset=".68" stop-color="#5b3f84"/>
      <stop offset="1" stop-color="#5e4187"/>
    </linearGradient>
    <linearGradient id="linear-gradient-5" x1="118.45" y1=".95" x2="132.91" y2="54.92" gradientUnits="userSpaceOnUse">
      <stop offset="0" stop-color="#1f254a"/>
      <stop offset=".01" stop-color="#23264d"/>
      <stop offset=".1" stop-color="#383062"/>
      <stop offset=".2" stop-color="#493773"/>
      <stop offset=".33" stop-color="#553d7e"/>
      <stop offset=".51" stop-color="#5c4085"/>
      <stop offset="1" stop-color="#5e4187"/>
    </linearGradient>
  </defs>
  <g id="Layer_1-2" data-name="Layer 1">
    <g>
      <g>
        <path class="cls-2" d="m32.67.03c3.86,0,7.48.73,10.87,2.19,3.39,1.46,6.35,3.45,8.87,5.98s4.52,5.48,5.98,8.87c1.46,3.39,2.19,7.01,2.19,10.88s-.73,7.49-2.19,10.87c-1.46,3.39-3.45,6.35-5.98,8.87-2.52,2.52-5.48,4.52-8.87,5.98-3.39,1.46-7.01,2.19-10.87,2.19s-7.49-.73-10.87-2.19c-3.39-1.46-6.35-3.45-8.87-5.98-2.52-2.52-4.52-5.48-5.98-8.87-1.46-3.39-2.19-7.01-2.19-10.87s.73-7.48,2.19-10.88c1.46-3.39,3.45-6.35,5.98-8.87,2.52-2.52,5.48-4.52,8.87-5.98C25.18.76,28.81.03,32.67.03Zm11.95,27.84c0-1.63-.31-3.17-.93-4.6-.62-1.43-1.45-2.67-2.49-3.71-1.04-1.04-2.28-1.87-3.71-2.49-1.44-.62-2.97-.93-4.6-.93s-3.17.31-4.6.93c-1.44.62-2.69,1.45-3.75,2.49-1.06,1.04-1.91,2.28-2.52,3.71-.62,1.44-.93,2.97-.93,4.6s.31,3.17.93,4.6c.62,1.44,1.46,2.69,2.52,3.75,1.06,1.06,2.31,1.91,3.75,2.52,1.44.62,2.97.93,4.6.93s3.17-.31,4.6-.93c1.43-.62,2.67-1.46,3.71-2.52,1.04-1.06,1.87-2.31,2.49-3.75.62-1.43.93-2.97.93-4.6Z"/>
        <path class="cls-2" d="m85.59,16.65v19.75c0,.99.17,1.87.52,2.63.35.77.82,1.41,1.41,1.93.59.52,1.27.92,2.04,1.19.77.27,1.55.41,2.34.41.89,0,1.79-.07,2.71-.22.92-.15,1.87-.67,2.86-1.56l10.32,12.03c-1.98,2.23-4.21,3.7-6.68,4.42-2.48.72-5,1.08-7.57,1.08-2.72,0-5.42-.48-8.08-1.45-2.67-.96-5.09-2.3-7.29-4.01-2.19-1.71-4.01-3.71-5.47-6.01-1.45-2.3-2.35-4.79-2.7-7.46v-22.71h-10.76V1.07h37.04v15.59h-10.69ZM125.9.03c3.86,0,7.48.73,10.88,2.19,3.39,1.46,6.35,3.45,8.87,5.98,2.52,2.52,4.51,5.48,5.98,8.87,1.46,3.39,2.19,7.01,2.19,10.88s-.73,7.49-2.19,10.87c-1.46,3.39-3.45,6.35-5.98,8.87s-5.48,4.52-8.87,5.98c-3.39,1.46-7.02,2.19-10.88,2.19s-7.49-.73-10.87-2.19c-3.39-1.46-6.35-3.45-8.87-5.98-2.52-2.52-4.52-5.48-5.98-8.87-1.46-3.39-2.19-7.01-2.19-10.87s.73-7.48,2.19-10.88c1.46-3.39,3.45-6.35,5.98-8.87,2.52-2.52,5.48-4.52,8.87-5.98C118.41.76,122.04.03,125.9.03Zm11.95,27.84c0-1.63-.31-3.17-.93-4.6-.62-1.43-1.45-2.67-2.49-3.71-1.04-1.04-2.28-1.87-3.71-2.49-1.44-.62-2.97-.93-4.6-.93s-3.17.31-4.6.93c-1.44.62-2.69,1.45-3.75,2.49-1.06,1.04-1.91,2.28-2.52,3.71-.62,1.44-.93,2.97-.93,4.6s.31,3.17.93,4.6c.62,1.44,1.46,2.69,2.52,3.75,1.06,1.06,2.31,1.91,3.75,2.52,1.43.62,2.97.93,4.6.93s3.17-.31,4.6-.93c1.44-.62,2.67-1.46,3.71-2.52,1.04-1.06,1.87-2.31,2.49-3.75.62-1.43.93-2.97.93-4.6Z"/>
        <path class="cls-2" d="m207.18,1.07v53.82h-15.59v-27.83l-9.87,13.14-9.72-13.14v27.83h-15.59V1.07h15.59l9.72,13.06,9.87-13.06h15.59Z"/>
        <path class="cls-2" d="m243.03,1.07l16.63,53.82h-15.59l-1.71-6.38h-16.26l-1.63,6.38h-15.59L225.51,1.07h17.52Zm-5.72,32.36l-3.04-12.4-3.12,12.4h6.16Z"/>
      </g>
      <path class="cls-6" d="m253.02,33.35l7.6,24.39-16.55-.33-1.71-8.9h-16.2l4.98-15.1"/>
      <path class="cls-1" d="m191.57,27.06l15.59-26.01v72.05l-15.59-.19"/>
      <path class="cls-5" d="m85.59,16.65v19.74c0,.99.17,1.87.52,2.64.35.77.82,1.41,1.41,1.93.59.52,1.27.92,2.04,1.19.77.27,1.55.41,2.34.41.89,0,1.78-.06,2.67-.29,1.01-.26,5.04-3.57,6.03-4.46l9.8,13.21c-4.18,4.51-5.83,5.06-9.29,6.2-2.45.81-5,1.08-7.57,1.08-2.72,0-5.42-.48-8.08-1.45-2.67-.96-5.09-2.3-7.29-4.01-2.19-1.71-4.01-3.71-5.47-6.01-1.45-2.3-2.35-4.79-2.7-7.46v-22.71"/>
      <path class="cls-4" d="m1.25,29c7.46-15.65,52.18-17.97,62.92,1.82,4.95,9.13,2.75,23.13-5.61,31.38-10.9,10.75-28.16,7.69-38.15,2.31C6.3,56.91-3.6,39.16,1.25,29Z"/>
      <path class="cls-7" d="m32.67,0c3.86,0,7.48.73,10.87,2.19,3.39,1.46,6.35,3.45,8.87,5.98s4.52,5.48,5.98,8.87c1.46,3.39,2.19,7.01,2.19,10.87s-.73,7.49-2.19,10.87c-1.46,3.39-3.45,6.35-5.98,8.87-2.52,2.52-5.48,4.52-8.87,5.98-3.39,1.46-7.01,2.19-10.87,2.19s-7.49-.73-10.87-2.19c-3.39-1.46-6.35-3.45-8.87-5.98s-4.52-5.48-5.98-8.87c-1.46-3.39-2.19-7.01-2.19-10.87s.73-7.48,2.19-10.87c1.46-3.39,3.45-6.35,5.98-8.87,2.52-2.52,5.48-4.52,8.87-5.98,3.39-1.46,7.01-2.19,10.87-2.19Zm11.95,27.84c0-1.63-.31-3.17-.93-4.6-.62-1.43-1.45-2.67-2.49-3.71-1.04-1.04-2.28-1.87-3.71-2.49-1.44-.62-2.97-.93-4.6-.93s-3.17.31-4.6.93c-1.44.62-2.68,1.45-3.75,2.49-1.06,1.04-1.91,2.28-2.52,3.71-.62,1.44-.93,2.97-.93,4.6s.31,3.17.93,4.6c.62,1.44,1.46,2.69,2.52,3.75,1.06,1.06,2.31,1.91,3.75,2.52,1.44.62,2.97.93,4.6.93s3.17-.31,4.6-.93c1.43-.62,2.67-1.46,3.71-2.52,1.04-1.06,1.87-2.31,2.49-3.75.62-1.43.93-2.97.93-4.6Z"/>
      <path class="cls-3" d="m125.68.03c3.86,0,7.48.73,10.88,2.19,3.39,1.46,6.35,3.45,8.87,5.98,2.52,2.52,4.51,5.48,5.98,8.87,1.46,3.39,2.19,7.01,2.19,10.87s-.73,7.49-2.19,10.87c-1.46,3.39-3.45,6.35-5.98,8.87-2.52,2.52-5.48,4.52-8.87,5.98-3.39,1.46-7.01,2.19-10.88,2.19s-7.49-.73-10.87-2.19c-3.39-1.46-6.35-3.45-8.87-5.98s-4.52-5.48-5.98-8.87c-1.46-3.39-2.19-7.01-2.19-10.87s.73-7.48,2.19-10.87c1.46-3.39,3.45-6.35,5.98-8.87,2.52-2.52,5.48-4.52,8.87-5.98C118.19.76,121.82.03,125.68.03Zm11.95,27.84c0-1.63-.31-3.17-.93-4.6-.62-1.43-1.45-2.67-2.49-3.71-1.04-1.04-2.28-1.87-3.71-2.49-1.44-.62-2.97-.93-4.6-.93s-3.17.31-4.6.93c-1.44.62-2.69,1.45-3.75,2.49-1.06,1.04-1.91,2.28-2.52,3.71-.62,1.44-.93,2.97-.93,4.6s.31,3.17.93,4.6c.62,1.44,1.46,2.69,2.52,3.75,1.06,1.06,2.31,1.91,3.75,2.52,1.43.62,2.97.93,4.6.93s3.17-.31,4.6-.93c1.43-.62,2.67-1.46,3.71-2.52,1.04-1.06,1.87-2.31,2.49-3.75.62-1.43.93-2.97.93-4.6Z"/>
    </g>
  </g>
</svg>